<svg width="65" height="34" viewBox="0 0 65 34" fill="none" xmlns="http://www.w3.org/2000/svg">
<path d="M0.580811 13.9321V33.6689H7.4339V13.9321V7.90134L0.580811 13.9321Z" fill="#25ABE3"/>
<path d="M47.4559 7.90134H42.7958L37.0392 24.8113L34.0239 33.6689H40.3287L45.2629 18.8663L48.2922 10.3684L47.4559 7.90134Z" fill="#25ABE3"/>
<path d="M58.1468 7.90134L52.9384 24.0746L49.923 33.6689H56.7761L64.9998 7.90134H58.1468Z" fill="#25ABE3"/>
<path d="M16.2059 0.5V7.90134H23.0589V0.5H16.2059Z" fill="#25ABE3"/>
<path d="M7.4339 13.9321H16.2059V33.6689H23.0589V13.9321H27.719L34.0239 33.6689L37.0392 24.8113L32.105 7.90134H23.0589H16.2059H7.4339V13.9321Z" fill="#1375BE"/>
<path d="M45.2629 18.8663L49.923 33.6689L52.9384 24.0746L48.2922 10.3684L45.2629 18.8663Z" fill="#0E75BE"/>
<circle cx="3.28948" cy="3.78948" r="3.28948" fill="#26AFE9"/>
</svg>
